{
  "accessors": [
    {
      "bufferView": 2,
      "componentType": 5126,
      "count": 2522,
      "max": [
        -0.5324094295501709,
        0.5316749811172485,
        -0.056595027446746826
      ],
      "min": [
        -0.6526061296463013,
        0.3292769193649292,
        -0.1514689028263092
      ],
      "type": "VEC3"
    },
    {
      "bufferView": 2,
      "byteOffset": 30264,
      "componentType": 5126,
      "count": 2522,
      "max": [
        0.9991408586502075,
        0.9989572167396545,
        0.9984284043312073
      ],
      "min": [
        -0.9991075992584229,
        -0.9998469352722168,
        -0.99842768907547
      ],
      "type": "VEC3"
    },
    {
      "bufferView": 0,
      "componentType": 5125,
      "count": 15144,
      "type": "SCALAR"
    },
    {
      "bufferView": 2,
      "byteOffset": 60528,
      "componentType": 5126,
      "count": 216,
      "max": [
        -0.4963747560977936,
        0.6104068160057068,
        -0.011620519682765007
      ],
      "min": [
        -0.5592397451400757,
        0.5036380887031555,
        -0.13052502274513245
      ],
      "type": "VEC3"
    },
    {
      "bufferView": 2,
      "byteOffset": 63120,
      "componentType": 5126,
      "count": 216,
      "max": [
        0.9997950792312622,
        0.9917755126953125,
        0.985832154750824
      ],
      "min": [
        -0.9997882843017578,
        -0.9917702078819275,
        -0.9858322739601135
      ],
      "type": "VEC3"
    },
    {
      "bufferView": 0,
      "byteOffset": 60576,
      "componentType": 5125,
      "count": 1284,
      "type": "SCALAR"
    },
    {
      "bufferView": 2,
      "byteOffset": 65712,
      "componentType": 5126,
      "count": 2522,
      "max": [
        -0.5313965678215027,
        0.5326740145683289,
        0.21352329850196838
      ],
      "min": [
        -0.6536188721656799,
        0.328277051448822,
        0.1165379136800766
      ],
      "type": "VEC3"
    },
    {
      "bufferView": 2,
      "byteOffset": 95976,
      "componentType": 5126,
      "count": 2522,
      "max": [
        0.999110221862793,
        0.9989592432975769,
        0.99842768907547
      ],
      "min": [
        -0.9991370439529419,
        -0.9989604949951172,
        -0.99842768907547
      ],
      "type": "VEC3"
    },
    {
      "bufferView": 0,
      "byteOffset": 65712,
      "componentType": 5125,
      "count": 15144,
      "type": "SCALAR"
    },
    {
      "bufferView": 2,
      "byteOffset": 126240,
      "componentType": 5126,
      "count": 216,
      "max": [
        -0.49450382590293884,
        0.6140794157981873,
        0.19160296022891998
      ],
      "min": [
        -0.5592178106307983,
        0.5036630630493164,
        0.07681064307689667
      ],
      "type": "VEC3"
    },
    {
      "bufferView": 2,
      "byteOffset": 128832,
      "componentType": 5126,
      "count": 216,
      "max": [
        0.9996204376220703,
        0.9907264709472656,
        0.9868162870407104
      ],
      "min": [
        -0.9996137619018555,
        -0.9907156825065613,
        -0.9868155717849731
      ],
      "type": "VEC3"
    },
    {
      "bufferView": 0,
      "byteOffset": 126288,
      "componentType": 5125,
      "count": 1284,
      "type": "SCALAR"
    },
    {
      "bufferView": 2,
      "byteOffset": 131424,
      "componentType": 5126,
      "count": 4868,
      "max": [
        -0.3206091821193695,
        0.8461725115776062,
        0.09598047286272049
      ],
      "min": [
        -0.5385196805000305,
        0.6056702136993408,
        -0.030422396957874298
      ],
      "type": "VEC3"
    },
    {
      "bufferView": 2,
      "byteOffset": 189840,
      "componentType": 5126,
      "count": 4868,
      "max": [
        0.9890985488891602,
        0.9773454666137695,
        1.0
      ],
      "min": [
        -0.9999998807907104,
        -0.9982094168663025,
        -1.0
      ],
      "type": "VEC3"
    },
    {
      "bufferView": 0,
      "byteOffset": 131424,
      "componentType": 5125,
      "count": 28800,
      "type": "SCALAR"
    },
    {
      "bufferView": 2,
      "byteOffset": 248256,
      "componentType": 5126,
      "count": 1601,
      "max": [
        -0.35529524087905884,
        0.8320622444152832,
        0.0815477967262268
      ],
      "min": [
        -0.5352871417999268,
        0.6048358082771301,
        -0.015989728271961212
      ],
      "type": "VEC3"
    },
    {
      "bufferView": 2,
      "byteOffset": 267468,
      "componentType": 5126,
      "count": 1601,
      "max": [
        0.9968176484107971,
        0.9929203987121582,
        1.0
      ],
      "min": [
        -0.9991395473480225,
        -0.9989277720451355,
        -1.0
      ],
      "type": "VEC3"
    },
    {
      "bufferView": 0,
      "byteOffset": 246624,
      "componentType": 5125,
      "count": 9408,
      "type": "SCALAR"
    },
    {
      "bufferView": 2,
      "byteOffset": 286680,
      "componentType": 5126,
      "count": 840,
      "max": [
        -0.475988507270813,
        0.6350393891334534,
        0.12149778008460999
      ],
      "min": [
        -0.5629017353057861,
        0.5104959011077881,
        -0.06044124439358711
      ],
      "type": "VEC3"
    },
    {
      "bufferView": 2,
      "byteOffset": 296760,
      "componentType": 5126,
      "count": 840,
      "max": [
        0.998035192489624,
        0.9992426633834839,
        0.948695957660675
      ],
      "min": [
        -0.9977618455886841,
        -0.9992438554763794,
        -0.948701024055481
      ],
      "type": "VEC3"
    },
    {
      "bufferView": 0,
      "byteOffset": 284256,
      "componentType": 5125,
      "count": 5040,
      "type": "SCALAR"
    },
    {
      "bufferView": 2,
      "byteOffset": 306840,
      "componentType": 5126,
      "count": 594,
      "max": [
        -0.03167535364627838,
        1.3827351331710815,
        0.1525028645992279
      ],
      "min": [
        -0.47608572244644165,
        0.8191235661506653,
        -0.08139185607433319
      ],
      "type": "VEC3"
    },
    {
      "bufferView": 2,
      "byteOffset": 313968,
      "componentType": 5126,
      "count": 594,
      "max": [
        0.9984121322631836,
        0.9918584227561951,
        1.0
      ],
      "min": [
        -0.9305086731910706,
        -0.5406191945075989,
        -0.9990917444229126
      ],
      "type": "VEC3"
    },
    {
      "bufferView": 1,
      "componentType": 5126,
      "count": 594,
      "max": [
        0.6756498217582703,
        1.0116524696350098
      ],
      "min": [
        -0.05177096277475357,
        0.007582108955830336
      ],
      "type": "VEC2"
    },
    {
      "bufferView": 0,
      "byteOffset": 304416,
      "componentType": 5125,
      "count": 2880,
      "type": "SCALAR"
    },
    {
      "bufferView": 2,
      "byteOffset": 321096,
      "componentType": 5126,
      "count": 51713,
      "max": [
        -0.24069683253765106,
        0.9564483761787415,
        0.1391981989145279
      ],
      "min": [
        -0.5452232956886292,
        0.6382272243499756,
        -0.05769246816635132
      ],
      "type": "VEC3"
    },
    {
      "bufferView": 2,
      "byteOffset": 941652,
      "componentType": 5126,
      "count": 51713,
      "max": [
        0.9999635219573975,
        1.0,
        1.0
      ],
      "min": [
        -0.9999966621398926,
        -1.0,
        -1.0
      ],
      "type": "VEC3"
    },
    {
      "bufferView": 0,
      "byteOffset": 315936,
      "componentType": 5125,
      "count": 303936,
      "type": "SCALAR"
    },
    {
      "bufferView": 2,
      "byteOffset": 1562208,
      "componentType": 5126,
      "count": 15456,
      "max": [
        -0.17316806316375732,
        1.1828482151031494,
        0.16985808312892914
      ],
      "min": [
        -0.36566489934921265,
        0.9410359859466553,
        0.1361524611711502
      ],
      "type": "VEC3"
    },
    {
      "bufferView": 2,
      "byteOffset": 1747680,
      "componentType": 5126,
      "count": 15456,
      "max": [
        0.9978777170181274,
        0.9989437460899353,
        0.9997247457504272
      ],
      "min": [
        -0.9978721737861633,
        -0.9989437460899353,
        -0.9997289180755615
      ],
      "type": "VEC3"
    },
    {
      "bufferView": 0,
      "byteOffset": 1531680,
      "componentType": 5125,
      "count": 92604,
      "type": "SCALAR"
    },
    {
      "bufferView": 2,
      "byteOffset": 1933152,
      "componentType": 5126,
      "count": 8390,
      "max": [
        0.1578083634376526,
        1.7503337860107422,
        0.1900118589401245
      ],
      "min": [
        -0.23011375963687897,
        1.2820868492126465,
        -0.13815389573574066
      ],
      "type": "VEC3"
    },
    {
      "bufferView": 2,
      "byteOffset": 2033832,
      "componentType": 5126,
      "count": 8390,
      "max": [
        0.9997217655181885,
        0.9999730587005615,
        0.9999992847442627
      ],
      "min": [
        -0.9998446702957153,
        -0.9986926913261414,
        -1.0
      ],
      "type": "VEC3"
    },
    {
      "bufferView": 0,
      "byteOffset": 1902096,
      "componentType": 5125,
      "count": 49776,
      "type": "SCALAR"
    },
    {
      "bufferView": 2,
      "byteOffset": 2134512,
      "componentType": 5126,
      "count": 18819,
      "max": [
        0.07469325512647629,
        1.7295594215393066,
        0.14780792593955994
      ],
      "min": [
        -0.13728858530521393,
        1.4582147598266602,
        -0.02163609117269516
      ],
      "type": "VEC3"
    },
    {
      "bufferView": 2,
      "byteOffset": 2360340,
      "componentType": 5126,
      "count": 18819,
      "max": [
        0.9998892545700073,
        0.9999396800994873,
        0.9997912645339966
      ],
      "min": [
        -0.9993753433227539,
        -0.9999711513519287,
        -1.0
      ],
      "type": "VEC3"
    },
    {
      "bufferView": 0,
      "byteOffset": 2101200,
      "componentType": 5125,
      "count": 111744,
      "type": "SCALAR"
    },
    {
      "bufferView": 2,
      "byteOffset": 2586168,
      "componentType": 5126,
      "count": 8668,
      "max": [
        0.17539739608764648,
        1.69822096824646,
        -0.13399198651313782
      ],
      "min": [
        -0.20640340447425842,
        0.5698413252830505,
        -0.3787451982498169
      ],
      "type": "VEC3"
    },
    {
      "bufferView": 2,
      "byteOffset": 2690184,
      "componentType": 5126,
      "count": 8668,
      "max": [
        1.0,
        1.0,
        1.0
      ],
      "min": [
        -1.0,
        -1.0,
        -0.9999598264694214
      ],
      "type": "VEC3"
    },
    {
      "bufferView": 0,
      "byteOffset": 2548176,
      "componentType": 5125,
      "count": 50844,
      "type": "SCALAR"
    },
    {
      "bufferView": 2,
      "byteOffset": 2794200,
      "componentType": 5126,
      "count": 16000,
      "max": [
        0.11988420784473419,
        1.6903934478759766,
        -0.1679828017950058
      ],
      "min": [
        -0.150890052318573,
        0.6373817920684814,
        -0.37818557024002075
      ],
      "type": "VEC3"
    },
    {
      "bufferView": 2,
      "byteOffset": 2986200,
      "componentType": 5126,
      "count": 16000,
      "max": [
        0.9999998807907104,
        0.9999902248382568,
        0.9999710321426392
      ],
      "min": [
        -0.9999998807907104,
        -0.9999953508377075,
        -0.9999682903289795
      ],
      "type": "VEC3"
    },
    {
      "bufferView": 0,
      "byteOffset": 2751552,
      "componentType": 5125,
      "count": 94020,
      "type": "SCALAR"
    },
    {
      "bufferView": 2,
      "byteOffset": 3178200,
      "componentType": 5126,
      "count": 10670,
      "max": [
        0.17056426405906677,
        0.9401794672012329,
        0.2992939352989197
      ],
      "min": [
        -0.20157024264335632,
        0.4029025137424469,
        -0.13371822237968445
      ],
      "type": "VEC3"
    },
    {
      "bufferView": 2,
      "byteOffset": 3306240,
      "componentType": 5126,
      "count": 10670,
      "max": [
        0.9998899698257446,
        1.0,
        0.9999997615814209
      ],
      "min": [
        -0.9998899698257446,
        -0.9990934133529663,
        -0.999998927116394
      ],
      "type": "VEC3"
    },
    {
      "bufferView": 1,
      "byteOffset": 4752,
      "componentType": 5126,
      "count": 10670,
      "max": [
        0.9998627305030823,
        0.9689297676086426
      ],
      "min": [
        0.00013744254829362035,
        0.00013744254829362035
      ],
      "type": "VEC2"
    },
    {
      "bufferView": 0,
      "byteOffset": 3127632,
      "componentType": 5125,
      "count": 42432,
      "type": "SCALAR"
    },
    {
      "bufferView": 2,
      "byteOffset": 3434280,
      "componentType": 5126,
      "count": 21147,
      "max": [
        0.09434018284082413,
        0.9081354141235352,
        0.2949284613132477
      ],
      "min": [
        -0.12534600496292114,
        0.6851106286048889,
        0.06040402129292488
      ],
      "type": "VEC3"
    },
    {
      "bufferView": 2,
      "byteOffset": 3688044,
      "componentType": 5126,
      "count": 21147,
      "max": [
        0.9999997615814209,
        0.9997100830078125,
        0.9998453855514526
      ],
      "min": [
        -0.9999997615814209,
        -0.998979389667511,
        -0.9999784231185913
      ],
      "type": "VEC3"
    },
    {
      "bufferView": 1,
      "byteOffset": 90112,
      "componentType": 5126,
      "count": 21147,
      "max": [
        0.5702811479568481,
        0.6190247535705566
      ],
      "min": [
        0.5237599015235901,
        0.6036925315856934
      ],
      "type": "VEC2"
    },
    {
      "bufferView": 0,
      "byteOffset": 3297360,
      "componentType": 5125,
      "count": 111744,
      "type": "SCALAR"
    },
    {
      "bufferView": 2,
      "byteOffset": 3941808,
      "componentType": 5126,
      "count": 17073,
      "max": [
        0.20272806286811829,
        0.3625188171863556,
        0.2829185128211975
      ],
      "min": [
        -0.20272809267044067,
        -0.03845067694783211,
        -0.2829185128211975
      ],
      "type": "VEC3"
    },
    {
      "bufferView": 2,
      "byteOffset": 4146684,
      "componentType": 5126,
      "count": 17073,
      "max": [
        1.0,
        1.0,
        1.0
      ],
      "min": [
        -1.0,
        -1.0,
        -1.0
      ],
      "type": "VEC3"
    },
    {
      "bufferView": 0,
      "byteOffset": 3744336,
      "componentType": 5125,
      "count": 102144,
      "type": "SCALAR"
    },
    {
      "bufferView": 2,
      "byteOffset": 4351560,
      "componentType": 5126,
      "count": 1728,
      "max": [
        0.4191617965698242,
        0.0,
        0.4191617965698242
      ],
      "min": [
        -0.4191617965698242,
        -0.025914959609508514,
        -0.4191617965698242
      ],
      "type": "VEC3"
    },
    {
      "bufferView": 2,
      "byteOffset": 4372296,
      "componentType": 5126,
      "count": 1728,
      "max": [
        0.9987966418266296,
        0.9987480640411377,
        0.9987966418266296
      ],
      "min": [
        -0.9987966418266296,
        -0.9987480640411377,
        -0.9987966418266296
      ],
      "type": "VEC3"
    },
    {
      "bufferView": 0,
      "byteOffset": 4152912,
      "componentType": 5125,
      "count": 10356,
      "type": "SCALAR"
    },
    {
      "bufferView": 3,
      "componentType": 5126,
      "count": 44,
      "max": [
        8.25
      ],
      "min": [
        0.2916666567325592
      ],
      "type": "SCALAR"
    },
    {
      "bufferView": 5,
      "componentType": 5126,
      "count": 44,
      "max": [
        0.0,
        0.7262953519821167,
        0.0,
        1.0
      ],
      "min": [
        0.0,
        -0.04576954245567322,
        0.0,
        0.6873827576637268
      ],
      "type": "VEC4"
    },
    {
      "bufferView": 3,
      "byteOffset": 176,
      "componentType": 5126,
      "count": 18,
      "max": [
        8.25
      ],
      "min": [
        0.2916666567325592
      ],
      "type": "SCALAR"
    },
    {
      "bufferView": 4,
      "componentType": 5126,
      "count": 18,
      "max": [
        1.0,
        1.0,
        1.0
      ],
      "min": [
        0.9999999403953552,
        1.0,
        0.9999999403953552
      ],
      "type": "VEC3"
    },
    {
      "bufferView": 3,
      "byteOffset": 248,
      "componentType": 5126,
      "count": 86,
      "max": [
        8.25
      ],
      "min": [
        0.2916666567325592
      ],
      "type": "SCALAR"
    },
    {
      "bufferView": 5,
      "byteOffset": 704,
      "componentType": 5126,
      "count": 86,
      "max": [
        -0.6630614399909973,
        0.24566137790679932,
        0.06680681556463242,
        0.7071067690849304
      ],
      "min": [
        -0.7071067690849304,
        -0.06680681556463242,
        -0.24566137790679932,
        0.6630614399909973
      ],
      "type": "VEC4"
    },
    {
      "bufferView": 3,
      "byteOffset": 592,
      "componentType": 5126,
      "count": 89,
      "max": [
        8.25
      ],
      "min": [
        0.2916666567325592
      ],
      "type": "SCALAR"
    },
    {
      "bufferView": 4,
      "byteOffset": 216,
      "componentType": 5126,
      "count": 89,
      "max": [
        1.000000238418579,
        1.000000238418579,
        1.0
      ],
      "min": [
        0.9999997615814209,
        1.0,
        0.9999999403953552
      ],
      "type": "VEC3"
    },
    {
      "bufferView": 3,
      "byteOffset": 948,
      "componentType": 5126,
      "count": 177,
      "max": [
        8.25
      ],
      "min": [
        0.2916666567325592
      ],
      "type": "SCALAR"
    },
    {
      "bufferView": 4,
      "byteOffset": 1284,
      "componentType": 5126,
      "count": 177,
      "max": [
        2.0954757928848267e-07,
        0.5445543527603149,
        0.7881274223327637
      ],
      "min": [
        -1.4808028936386108e-07,
        0.5445538759231567,
        0.7881268262863159
      ],
      "type": "VEC3"
    },
    {
      "bufferView": 3,
      "byteOffset": 1656,
      "componentType": 5126,
      "count": 132,
      "max": [
        8.25
      ],
      "min": [
        0.2916666567325592
      ],
      "type": "SCALAR"
    },
    {
      "bufferView": 5,
      "byteOffset": 2080,
      "componentType": 5126,
      "count": 132,
      "max": [
        0.9721540212631226,
        1.3748211458164405e-08,
        0.9997892379760742,
        1.5287215049397673e-08
      ],
      "min": [
        -0.7056957483291626,
        -1.667395821414175e-08,
        -0.6984211206436157,
        -1.5287215049397673e-08
      ],
      "type": "VEC4"
    },
    {
      "bufferView": 3,
      "byteOffset": 2184,
      "componentType": 5126,
      "count": 125,
      "max": [
        8.25
      ],
      "min": [
        0.2916666567325592
      ],
      "type": "SCALAR"
    },
    {
      "bufferView": 4,
      "byteOffset": 3408,
      "componentType": 5126,
      "count": 125,
      "max": [
        1.000000238418579,
        1.000000238418579,
        1.000000238418579
      ],
      "min": [
        0.9999997019767761,
        0.9999998807907104,
        0.9999997615814209
      ],
      "type": "VEC3"
    },
    {
      "bufferView": 3,
      "byteOffset": 2684,
      "componentType": 5126,
      "count": 138,
      "max": [
        8.25
      ],
      "min": [
        0.2916666567325592
      ],
      "type": "SCALAR"
    },
    {
      "bufferView": 4,
      "byteOffset": 4908,
      "componentType": 5126,
      "count": 138,
      "max": [
        7.217749953269958e-07,
        0.46351927518844604,
        0.2541131377220154
      ],
      "min": [
        -3.511086106300354e-07,
        0.46351924538612366,
        0.25411248207092285
      ],
      "type": "VEC3"
    },
    {
      "bufferView": 3,
      "byteOffset": 3236,
      "componentType": 5126,
      "count": 131,
      "max": [
        8.25
      ],
      "min": [
        0.2916666567325592
      ],
      "type": "SCALAR"
    },
    {
      "bufferView": 5,
      "byteOffset": 4192,
      "componentType": 5126,
      "count": 131,
      "max": [
        0.5069289207458496,
        0.7083212733268738,
        0.7058902382850647,
        0.5086748003959656
      ],
      "min": [
        -1.2262994175671338e-08,
        0.49291881918907166,
        0.49122703075408936,
        3.8502872001799915e-08
      ],
      "type": "VEC4"
    },
    {
      "bufferView": 3,
      "byteOffset": 3760,
      "componentType": 5126,
      "count": 140,
      "max": [
        8.25
      ],
      "min": [
        0.2916666567325592
      ],
      "type": "SCALAR"
    },
    {
      "bufferView": 4,
      "byteOffset": 6564,
      "componentType": 5126,
      "count": 140,
      "max": [
        1.000000238418579,
        1.000000238418579,
        1.000000238418579
      ],
      "min": [
        0.9999997019767761,
        0.9999997019767761,
        0.9999997615814209
      ],
      "type": "VEC3"
    },
    {
      "bufferView": 3,
      "byteOffset": 4320,
      "componentType": 5126,
      "count": 152,
      "max": [
        8.25
      ],
      "min": [
        0.2916666567325592
      ],
      "type": "SCALAR"
    },
    {
      "bufferView": 4,
      "byteOffset": 8244,
      "componentType": 5126,
      "count": 152,
      "max": [
        1.1920936060505483e-07,
        0.6546510457992554,
        1.218842697880973e-07
      ],
      "min": [
        -2.3841860752327193e-07,
        0.6546505689620972,
        -1.247218648359194e-07
      ],
      "type": "VEC3"
    },
    {
      "bufferView": 3,
      "byteOffset": 4928,
      "componentType": 5126,
      "count": 145,
      "max": [
        8.25
      ],
      "min": [
        0.2916666567325592
      ],
      "type": "SCALAR"
    },
    {
      "bufferView": 5,
      "byteOffset": 6288,
      "componentType": 5126,
      "count": 145,
      "max": [
        -0.011536510661244392,
        2.8666860885095957e-07,
        2.848262568022619e-07,
        0.9999334812164307
      ],
      "min": [
        -0.011536570265889168,
        2.419681095489068e-07,
        2.47523445295883e-07,
        0.9999334812164307
      ],
      "type": "VEC4"
    },
    {
      "bufferView": 3,
      "byteOffset": 5508,
      "componentType": 5126,
      "count": 145,
      "max": [
        8.25
      ],
      "min": [
        0.2916666567325592
      ],
      "type": "SCALAR"
    },
    {
      "bufferView": 4,
      "byteOffset": 10068,
      "componentType": 5126,
      "count": 145,
      "max": [
        1.0000003576278687,
        1.000000238418579,
        1.000000238418579
      ],
      "min": [
        0.9999996423721313,
        0.9999994039535522,
        0.9999996423721313
      ],
      "type": "VEC3"
    },
    {
      "bufferView": 3,
      "byteOffset": 6088,
      "componentType": 5126,
      "count": 165,
      "max": [
        8.25
      ],
      "min": [
        0.2916666567325592
      ],
      "type": "SCALAR"
    },
    {
      "bufferView": 4,
      "byteOffset": 11808,
      "componentType": 5126,
      "count": 165,
      "max": [
        -4.7199060645652935e-05,
        0.16855765879154205,
        -0.05033602565526962
      ],
      "min": [
        -4.797387737198733e-05,
        0.16855652630329132,
        -0.0503372885286808
      ],
      "type": "VEC3"
    },
    {
      "bufferView": 3,
      "byteOffset": 6748,
      "componentType": 5126,
      "count": 168,
      "max": [
        8.25
      ],
      "min": [
        0.2916666567325592
      ],
      "type": "SCALAR"
    },
    {
      "bufferView": 5,
      "byteOffset": 8608,
      "componentType": 5126,
      "count": 168,
      "max": [
        -0.2045845091342926,
        0.02111900970339775,
        0.06990073621273041,
        0.9787842631340027
      ],
      "min": [
        -0.5706316828727722,
        -0.011638420633971691,
        -0.030080510303378105,
        0.8206987977027893
      ],
      "type": "VEC4"
    },
    {
      "bufferView": 3,
      "byteOffset": 7420,
      "componentType": 5126,
      "count": 169,
      "max": [
        8.25
      ],
      "min": [
        0.2916666567325592
      ],
      "type": "SCALAR"
    },
    {
      "bufferView": 4,
      "byteOffset": 13788,
      "componentType": 5126,
      "count": 169,
      "max": [
        1.0000003576278687,
        1.0000004768371582,
        1.000000238418579
      ],
      "min": [
        0.9999996423721313,
        0.9999997019767761,
        0.9999995827674866
      ],
      "type": "VEC3"
    },
    {
      "bufferView": 3,
      "byteOffset": 8096,
      "componentType": 5126,
      "count": 173,
      "max": [
        8.25
      ],
      "min": [
        0.2916666567325592
      ],
      "type": "SCALAR"
    },
    {
      "bufferView": 4,
      "byteOffset": 15816,
      "componentType": 5126,
      "count": 173,
      "max": [
        2.3835796980620216e-07,
        0.1358797401189804,
        3.874513367918553e-07
      ],
      "min": [
        -1.192345848721743e-07,
        0.13587932288646698,
        -8.264657225254268e-08
      ],
      "type": "VEC3"
    },
    {
      "bufferView": 3,
      "byteOffset": 8788,
      "componentType": 5126,
      "count": 169,
      "max": [
        8.25
      ],
      "min": [
        0.2916666567325592
      ],
      "type": "SCALAR"
    },
    {
      "bufferView": 5,
      "byteOffset": 11296,
      "componentType": 5126,
      "count": 169,
      "max": [
        0.5798609852790833,
        0.004623506683856249,
        -0.0007496371399611235,
        0.9935489892959595
      ],
      "min": [
        0.10709696263074875,
        -0.002947397530078888,
        -0.03724275156855583,
        0.8146001100540161
      ],
      "type": "VEC4"
    },
    {
      "bufferView": 3,
      "byteOffset": 9464,
      "componentType": 5126,
      "count": 166,
      "max": [
        8.25
      ],
      "min": [
        0.2916666567325592
      ],
      "type": "SCALAR"
    },
    {
      "bufferView": 4,
      "byteOffset": 17892,
      "componentType": 5126,
      "count": 166,
      "max": [
        1.0000003576278687,
        1.000000238418579,
        1.0000005960464478
      ],
      "min": [
        0.9999995827674866,
        0.9999995827674866,
        0.9999997019767761
      ],
      "type": "VEC3"
    },
    {
      "bufferView": 3,
      "byteOffset": 10128,
      "componentType": 5126,
      "count": 150,
      "max": [
        8.25
      ],
      "min": [
        0.2916666567325592
      ],
      "type": "SCALAR"
    },
    {
      "bufferView": 4,
      "byteOffset": 19884,
      "componentType": 5126,
      "count": 150,
      "max": [
        -4.7365629143314436e-05,
        0.16653972864151,
        0.052415214478969574
      ],
      "min": [
        -4.796215580427088e-05,
        0.16653859615325928,
        0.052414409816265106
      ],
      "type": "VEC3"
    },
    {
      "bufferView": 3,
      "byteOffset": 10728,
      "componentType": 5126,
      "count": 171,
      "max": [
        8.25
      ],
      "min": [
        0.2916666567325592
      ],
      "type": "SCALAR"
    },
    {
      "bufferView": 5,
      "byteOffset": 14000,
      "componentType": 5126,
      "count": 171,
      "max": [
        0.5179725289344788,
        0.05444393679499626,
        0.024989387020468712,
        0.9696148633956909
      ],
      "min": [
        0.23718859255313873,
        -0.08173539489507675,
        -0.013552050106227398,
        0.8552088737487793
      ],
      "type": "VEC4"
    },
    {
      "bufferView": 3,
      "byteOffset": 11412,
      "componentType": 5126,
      "count": 168,
      "max": [
        8.25
      ],
      "min": [
        0.2916666567325592
      ],
      "type": "SCALAR"
    },
    {
      "bufferView": 4,
      "byteOffset": 21684,
      "componentType": 5126,
      "count": 168,
      "max": [
        1.0000003576278687,
        1.0000003576278687,
        1.000000238418579
      ],
      "min": [
        0.9999995827674866,
        0.9999997019767761,
        0.9999996423721313
      ],
      "type": "VEC3"
    },
    {
      "bufferView": 3,
      "byteOffset": 12084,
      "componentType": 5126,
      "count": 175,
      "max": [
        8.25
      ],
      "min": [
        0.2916666567325592
      ],
      "type": "SCALAR"
    },
    {
      "bufferView": 4,
      "byteOffset": 23700,
      "componentType": 5126,
      "count": 175,
      "max": [
        1.1965610724473663e-07,
        0.13587963581085205,
        5.042532507104625e-07
      ],
      "min": [
        -1.1901541796532911e-07,
        0.13587911427021027,
        -1.0879440992539458e-07
      ],
      "type": "VEC3"
    },
    {
      "bufferView": 3,
      "byteOffset": 12784,
      "componentType": 5126,
      "count": 171,
      "max": [
        8.25
      ],
      "min": [
        0.2916666567325592
      ],
      "type": "SCALAR"
    },
    {
      "bufferView": 5,
      "byteOffset": 16736,
      "componentType": 5126,
      "count": 171,
      "max": [
        -0.19171255826950073,
        0.02334183268249035,
        0.01639951579272747,
        0.9810364246368408
      ],
      "min": [
        -0.6025829911231995,
        -0.0006962539628148079,
        -0.00044083112152293324,
        0.7978991270065308
      ],
      "type": "VEC4"
    },
    {
      "bufferView": 3,
      "byteOffset": 13468,
      "componentType": 5126,
      "count": 169,
      "max": [
        8.25
      ],
      "min": [
        0.2916666567325592
      ],
      "type": "SCALAR"
    },
    {
      "bufferView": 4,
      "byteOffset": 25800,
      "componentType": 5126,
      "count": 169,
      "max": [
        1.0000004768371582,
        1.0000003576278687,
        1.0000003576278687
      ],
      "min": [
        0.9999997019767761,
        0.9999996423721313,
        0.9999997615814209
      ],
      "type": "VEC3"
    }
  ],
  "animations": [
    {
      "channels": [
        {
          "sampler": 0,
          "target": {
            "node": 4,
            "path": "rotation"
          }
        },
        {
          "sampler": 1,
          "target": {
            "node": 4,
            "path": "scale"
          }
        },
        {
          "sampler": 2,
          "target": {
            "node": 5,
            "path": "rotation"
          }
        },
        {
          "sampler": 3,
          "target": {
            "node": 5,
            "path": "scale"
          }
        },
        {
          "sampler": 4,
          "target": {
            "node": 6,
            "path": "translation"
          }
        },
        {
          "sampler": 5,
          "target": {
            "node": 6,
            "path": "rotation"
          }
        },
        {
          "sampler": 6,
          "target": {
            "node": 6,
            "path": "scale"
          }
        },
        {
          "sampler": 7,
          "target": {
            "node": 7,
            "path": "translation"
          }
        },
        {
          "sampler": 8,
          "target": {
            "node": 7,
            "path": "rotation"
          }
        },
        {
          "sampler": 9,
          "target": {
            "node": 7,
            "path": "scale"
          }
        },
        {
          "sampler": 10,
          "target": {
            "node": 8,
            "path": "translation"
          }
        },
        {
          "sampler": 11,
          "target": {
            "node": 8,
            "path": "rotation"
          }
        },
        {
          "sampler": 12,
          "target": {
            "node": 8,
            "path": "scale"
          }
        },
        {
          "sampler": 13,
          "target": {
            "node": 9,
            "path": "translation"
          }
        },
        {
          "sampler": 14,
          "target": {
            "node": 9,
            "path": "rotation"
          }
        },
        {
          "sampler": 15,
          "target": {
            "node": 9,
            "path": "scale"
          }
        },
        {
          "sampler": 16,
          "target": {
            "node": 10,
            "path": "translation"
          }
        },
        {
          "sampler": 17,
          "target": {
            "node": 10,
            "path": "rotation"
          }
        },
        {
          "sampler": 18,
          "target": {
            "node": 10,
            "path": "scale"
          }
        },
        {
          "sampler": 19,
          "target": {
            "node": 15,
            "path": "translation"
          }
        },
        {
          "sampler": 20,
          "target": {
            "node": 15,
            "path": "rotation"
          }
        },
        {
          "sampler": 21,
          "target": {
            "node": 15,
            "path": "scale"
          }
        },
        {
          "sampler": 22,
          "target": {
            "node": 16,
            "path": "translation"
          }
        },
        {
          "sampler": 23,
          "target": {
            "node": 16,
            "path": "rotation"
          }
        },
        {
          "sampler": 24,
          "target": {
            "node": 16,
            "path": "scale"
          }
        }
      ],
      "name": "ArmatureAction.001",
      "samplers": [
        {
          "input": 57,
          "interpolation": "LINEAR",
          "output": 58
        },
        {
          "input": 59,
          "interpolation": "LINEAR",
          "output": 60
        },
        {
          "input": 61,
          "interpolation": "LINEAR",
          "output": 62
        },
        {
          "input": 63,
          "interpolation": "LINEAR",
          "output": 64
        },
        {
          "input": 65,
          "interpolation": "LINEAR",
          "output": 66
        },
        {
          "input": 67,
          "interpolation": "LINEAR",
          "output": 68
        },
        {
          "input": 69,
          "interpolation": "LINEAR",
          "output": 70
        },
        {
          "input": 71,
          "interpolation": "LINEAR",
          "output": 72
        },
        {
          "input": 73,
          "interpolation": "LINEAR",
          "output": 74
        },
        {
          "input": 75,
          "interpolation": "LINEAR",
          "output": 76
        },
        {
          "input": 77,
          "interpolation": "LINEAR",
          "output": 78
        },
        {
          "input": 79,
          "interpolation": "LINEAR",
          "output": 80
        },
        {
          "input": 81,
          "interpolation": "LINEAR",
          "output": 82
        },
        {
          "input": 83,
          "interpolation": "LINEAR",
          "output": 84
        },
        {
          "input": 85,
          "interpolation": "LINEAR",
          "output": 86
        },
        {
          "input": 87,
          "interpolation": "LINEAR",
          "output": 88
        },
        {
          "input": 89,
          "interpolation": "LINEAR",
          "output": 90
        },
        {
          "input": 91,
          "interpolation": "LINEAR",
          "output": 92
        },
        {
          "input": 93,
          "interpolation": "LINEAR",
          "output": 94
        },
        {
          "input": 95,
          "interpolation": "LINEAR",
          "output": 96
        },
        {
          "input": 97,
          "interpolation": "LINEAR",
          "output": 98
        },
        {
          "input": 99,
          "interpolation": "LINEAR",
          "output": 100
        },
        {
          "input": 101,
          "interpolation": "LINEAR",
          "output": 102
        },
        {
          "input": 103,
          "interpolation": "LINEAR",
          "output": 104
        },
        {
          "input": 105,
          "interpolation": "LINEAR",
          "output": 106
        }
      ]
    }
  ],
  "asset": {
    "extras": {
      "author": "Jacob.Elhatmi (https://sketchfab.com/Jacob.Elhatmi)",
      "license": "CC-BY-4.0 (http://creativecommons.org/licenses/by/4.0/)",
      "source": "https://sketchfab.com/3d-models/industrial-robot-arm-b3b15ce4f9bb48e5a394477fd283d1d1",
      "title": "Industrial robot arm"
    },
    "generator": "Sketchfab-12.66.0",
    "version": "2.0"
  },
  "bufferViews": [
    {
      "buffer": 0,
      "byteLength": 4194336,
      "name": "floatBufferViews",
      "target": 34963
    },
    {
      "buffer": 0,
      "byteLength": 259288,
      "byteOffset": 4194336,
      "byteStride": 8,
      "name": "floatBufferViews",
      "target": 34962
    },
    {
      "buffer": 0,
      "byteLength": 4393032,
      "byteOffset": 4453624,
      "byteStride": 12,
      "name": "floatBufferViews",
      "target": 34962
    },
    {
      "buffer": 0,
      "byteLength": 14144,
      "byteOffset": 8846656,
      "name": "floatBufferViews"
    },
    {
      "buffer": 0,
      "byteLength": 27828,
      "byteOffset": 8860800,
      "byteStride": 12,
      "name": "floatBufferViews"
    },
    {
      "buffer": 0,
      "byteLength": 19472,
      "byteOffset": 8888628,
      "byteStride": 16,
      "name": "floatBufferViews"
    }
  ],
  "buffers": [
    {
      "byteLength": 8908100,
      "uri": "scene.bin"
    }
  ],
  "extensionsUsed": [
    "KHR_materials_clearcoat"
  ],
  "materials": [
    {
      "doubleSided": true,
      "name": "Material.009",
      "pbrMetallicRoughness": {
        "baseColorFactor": [
          0.2936600258210546,
          0.2936600258210546,
          0.2936600258210546,
          1.0
        ],
        "roughnessFactor": 0.12332175996303008
      }
    },
    {
      "doubleSided": true,
      "name": "Material.008",
      "pbrMetallicRoughness": {
        "baseColorFactor": [
          0.03960026348682824,
          0.03960026348682824,
          0.03960026348682824,
          1.0
        ],
        "roughnessFactor": 0.37870611341497523
      }
    },
    {
      "doubleSided": true,
      "extensions": {
        "KHR_materials_clearcoat": {
          "clearcoatFactor": 1.0,
          "clearcoatRoughnessFactor": 0.04
        }
      },
      "name": "Material.010",
      "pbrMetallicRoughness": {
        "baseColorFactor": [
          0.0015176349177441876,
          0.1070231029782675,
          0.09989872824711396,
          1.0
        ],
        "roughnessFactor": 0.731
      }
    },
    {
      "doubleSided": true,
      "name": "Material.007",
      "pbrMetallicRoughness": {
        "baseColorFactor": [
          0.0164815923687016,
          0.0164815923687016,
          0.0164815923687016,
          1.0
        ],
        "metallicFactor": 0.4699148110763843,
        "roughnessFactor": 0.24493335684490875
      }
    },
    {
      "doubleSided": true,
      "name": "screws.002",
      "pbrMetallicRoughness": {
        "baseColorFactor": [
          0.052967298674605465,
          0.052967298674605465,
          0.052967298674605465,
          1.0
        ]
      }
    },
    {
      "doubleSided": true,
      "extensions": {
        "KHR_materials_clearcoat": {
          "clearcoatFactor": 1.0,
          "clearcoatRoughnessFactor": 0.04
        }
      },
      "name": "paint.003",
      "pbrMetallicRoughness": {
        "baseColorFactor": [
          0.0016088253405177931,
          0.10737724127081895,
          0.10006614969387895,
          1.0
        ],
        "roughnessFactor": 0.7313797443724234
      }
    },
    {
      "doubleSided": true,
      "name": "screws.003",
      "pbrMetallicRoughness": {
        "baseColorFactor": [
          0.1306056010433147,
          0.1306056010433147,
          0.1306056010433147,
          1.0
        ],
        "roughnessFactor": 0.30573915528584805
      }
    },
    {
      "doubleSided": true,
      "extensions": {
        "KHR_materials_clearcoat": {
          "clearcoatFactor": 1.0,
          "clearcoatRoughnessFactor": 0.04
        }
      },
      "name": "Material.011",
      "pbrMetallicRoughness": {
        "baseColorFactor": [
          0.0015176349177441876,
          0.1070231029782675,
          0.09989872824711396,
          1.0
        ],
        "roughnessFactor": 0.731
      }
    },
    {
      "doubleSided": true,
      "name": "paint.001",
      "pbrMetallicRoughness": {
        "baseColorFactor": [
          0.013045770706973677,
          0.013045770706973677,
          0.013045770706973677,
          1.0
        ],
        "roughnessFactor": 0.35438379403859954
      }
    }
  ],
  "meshes": [
    {
      "name": "Object_0",
      "primitives": [
        {
          "attributes": {
            "NORMAL": 1,
            "POSITION": 0
          },
          "indices": 2,
          "material": 0,
          "mode": 4
        }
      ]
    },
    {
      "name": "Object_1",
      "primitives": [
        {
          "attributes": {
            "NORMAL": 4,
            "POSITION": 3
          },
          "indices": 5,
          "material": 0,
          "mode": 4
        }
      ]
    },
    {
      "name": "Object_2",
      "primitives": [
        {
          "attributes": {
            "NORMAL": 7,
            "POSITION": 6
          },
          "indices": 8,
          "material": 0,
          "mode": 4
        }
      ]
    },
    {
      "name": "Object_3",
      "primitives": [
        {
          "attributes": {
            "NORMAL": 10,
            "POSITION": 9
          },
          "indices": 11,
          "material": 0,
          "mode": 4
        }
      ]
    },
    {
      "name": "Object_4",
      "primitives": [
        {
          "attributes": {
            "NORMAL": 13,
            "POSITION": 12
          },
          "indices": 14,
          "material": 0,
          "mode": 4
        }
      ]
    },
    {
      "name": "Object_5",
      "primitives": [
        {
          "attributes": {
            "NORMAL": 16,
            "POSITION": 15
          },
          "indices": 17,
          "material": 1,
          "mode": 4
        }
      ]
    },
    {
      "name": "Object_6",
      "primitives": [
        {
          "attributes": {
            "NORMAL": 19,
            "POSITION": 18
          },
          "indices": 20,
          "material": 1,
          "mode": 4
        }
      ]
    },
    {
      "name": "Object_7",
      "primitives": [
        {
          "attributes": {
            "NORMAL": 22,
            "POSITION": 21,
            "TEXCOORD_0": 23
          },
          "indices": 24,
          "material": 2,
          "mode": 4
        }
      ]
    },
    {
      "name": "Object_8",
      "primitives": [
        {
          "attributes": {
            "NORMAL": 26,
            "POSITION": 25
          },
          "indices": 27,
          "material": 3,
          "mode": 4
        }
      ]
    },
    {
      "name": "Object_9",
      "primitives": [
        {
          "attributes": {
            "NORMAL": 29,
            "POSITION": 28
          },
          "indices": 30,
          "material": 4,
          "mode": 4
        }
      ]
    },
    {
      "name": "Object_10",
      "primitives": [
        {
          "attributes": {
            "NORMAL": 32,
            "POSITION": 31
          },
          "indices": 33,
          "material": 5,
          "mode": 4
        }
      ]
    },
    {
      "name": "Object_11",
      "primitives": [
        {
          "attributes": {
            "NORMAL": 35,
            "POSITION": 34
          },
          "indices": 36,
          "material": 6,
          "mode": 4
        }
      ]
    },
    {
      "name": "Object_12",
      "primitives": [
        {
          "attributes": {
            "NORMAL": 38,
            "POSITION": 37
          },
          "indices": 39,
          "material": 5,
          "mode": 4
        }
      ]
    },
    {
      "name": "Object_13",
      "primitives": [
        {
          "attributes": {
            "NORMAL": 41,
            "POSITION": 40
          },
          "indices": 42,
          "material": 6,
          "mode": 4
        }
      ]
    },
    {
      "name": "Object_14",
      "primitives": [
        {
          "attributes": {
            "NORMAL": 44,
            "POSITION": 43,
            "TEXCOORD_0": 45
          },
          "indices": 46,
          "material": 7,
          "mode": 4
        }
      ]
    },
    {
      "name": "Object_15",
      "primitives": [
        {
          "attributes": {
            "NORMAL": 48,
            "POSITION": 47,
            "TEXCOORD_0": 49
          },
          "indices": 50,
          "material": 6,
          "mode": 4
        }
      ]
    },
    {
      "name": "Object_16",
      "primitives": [
        {
          "attributes": {
            "NORMAL": 52,
            "POSITION": 51
          },
          "indices": 53,
          "material": 5,
          "mode": 4
        }
      ]
    },
    {
      "name": "Object_17",
      "primitives": [
        {
          "attributes": {
            "NORMAL": 55,
            "POSITION": 54
          },
          "indices": 56,
          "material": 8,
          "mode": 4
        }
      ]
    }
  ],
  "nodes": [
    {
      "children": [
        1
      ],
      "matrix": [
        1.0,
        0.0,
        0.0,
        0.0,
        0.0,
        2.220446049250313e-16,
        -1.0,
        0.0,
        0.0,
        1.0,
        2.220446049250313e-16,
        0.0,
        0.0,
        0.0,
        0.0,
        1.0
      ],
      "name": "Sketchfab_model"
    },
    {
      "children": [
        2
      ],
      "name": "root"
    },
    {
      "children": [
        3,
        41,
        43
      ],
      "matrix": [
        1.0,
        0.0,
        0.0,
        0.0,
        0.0,
        2.220446049250313e-16,
        1.0,
        0.0,
        0.0,
        -1.0,
        2.220446049250313e-16,
        0.0,
        0.0,
        0.0,
        0.0,
        1.0
      ],
      "name": "GLTF_SceneRootNode"
    },
    {
      "children": [
        4
      ],
      "matrix": [
        1.0,
        0.0,
        0.0,
        0.0,
        0.0,
        1.0,
        0.0,
        0.0,
        0.0,
        0.0,
        1.0,
        0.0,
        -0.015502989292144775,
        0.04038369655609131,
        0.11156310886144638,
        1.0
      ],
      "name": "Armature_21"
    },
    {
      "children": [
        5,
        38
      ],
      "name": "Bone_20"
    },
    {
      "children": [
        6,
        35
      ],
      "name": "Bone.001_18",
      "rotation": [
        -0.7071068286895752,
        0.0,
        0.0,
        0.7071068286895752
      ],
      "translation": [
        0.0,
        0.7294986248016357,
        0.0
      ]
    },
    {
      "children": [
        7,
        32
      ],
      "name": "Bone.003_16",
      "rotation": [
        0.9721541404724121,
        0.0,
        -0.23434266448020935,
        0.0
      ],
      "translation": [
        9.313225746154785e-10,
        0.5445541143417358,
        0.788127064704895
      ]
    },
    {
      "children": [
        8,
        26,
        28,
        30
      ],
      "name": "Bone.002_14",
      "rotation": [
        -3.98858013284098e-09,
        0.7083212733268738,
        0.7058902382850647,
        5.34766257942465e-08
      ],
      "translation": [
        -1.1269001021219083e-07,
        0.46351924538612366,
        0.2541126012802124
      ]
    },
    {
      "children": [
        9,
        15,
        21,
        24
      ],
      "name": "Bone.008_10",
      "rotation": [
        -0.01153654046356678,
        2.638527405451896e-07,
        2.698602656892035e-07,
        0.9999334812164307
      ],
      "scale": [
        0.9999999403953552,
        0.9999997019767761,
        0.9999998807907104
      ],
      "translation": [
        -5.960468740795477e-08,
        0.654650866985321,
        -4.856695934307709e-09
      ]
    },
    {
      "children": [
        10,
        13
      ],
      "name": "Bone.005_3",
      "rotation": [
        -0.3697270452976227,
        1.158868872153107e-05,
        0.00025002428446896374,
        0.9291403889656067
      ],
      "scale": [
        1.0000001192092896,
        0.9999998807907104,
        0.9999998807907104
      ],
      "translation": [
        -4.749712024931796e-05,
        0.16855722665786743,
        -0.05033664032816887
      ]
    },
    {
      "children": [
        11
      ],
      "name": "Bone.004_1",
      "rotation": [
        0.49234044551849365,
        -0.00037663450348190963,
        -0.0007496518664993346,
        0.8704023361206055
      ],
      "scale": [
        1.0000003576278687,
        0.9999998807907104,
        1.0
      ],
      "translation": [
        5.96137823549725e-08,
        0.1358795166015625,
        1.5749230897199595e-07
      ]
    },
    {
      "children": [
        12
      ],
      "matrix": [
        -0.8898017315542424,
        -0.44167736435681865,
        0.1147779784535608,
        0.0,
        0.45634643299877925,
        -0.8616925899544936,
        0.22188693856738764,
        0.0,
        0.0009008953117427762,
        0.24981390320062455,
        0.9682934483695045,
        0.0,
        -0.7236311435699463,
        0.22871260344982147,
        0.06160412356257439,
        1.0
      ],
      "name": "Plane.006_0"
    },
    {
      "mesh": 0,
      "name": "Object_12"
    },
    {
      "children": [
        14
      ],
      "matrix": [
        -0.8903730296904837,
        -0.32443365897553644,
        -0.3193409916116851,
        0.0,
        0.45523161300273285,
        -0.6348817003656098,
        -0.6242510753405253,
        0.0,
        -0.00021569125872672457,
        -0.7011904359477654,
        0.7129740009373859,
        0.0,
        -0.7235022187232971,
        0.2021261602640152,
        0.22782069444656372,
        1.0
      ],
      "name": "Plane.001_2"
    },
    {
      "mesh": 1,
      "name": "Object_14"
    },
    {
      "children": [
        16,
        19
      ],
      "name": "Bone.006_7",
      "rotation": [
        0.38789865374565125,
        0.00026204893947578967,
        0.0003673297760542482,
        0.9217019081115723
      ],
      "scale": [
        1.0,
        1.0,
        1.0000001192092896
      ],
      "translation": [
        -4.760428782901727e-05,
        0.16653932631015778,
        0.052414849400520325
      ]
    },
    {
      "children": [
        17
      ],
      "name": "Bone.007_5",
      "rotation": [
        -0.4923408627510071,
        -0.0006962346960790455,
        -0.00044080993393436074,
        0.8704021573066711
      ],
      "scale": [
        1.0000004768371582,
        1.000000238418579,
        1.0000003576278687
      ],
      "translation": [
        -5.9323568279978645e-08,
        0.13587939739227295,
        1.2135865290474612e-07
      ]
    },
    {
      "children": [
        18
      ],
      "matrix": [
        -0.8900136370947902,
        -0.44167752411291494,
        -0.11312245788873387,
        0.0,
        0.4559330158204613,
        -0.8616925135868629,
        -0.22273548687448266,
        0.0,
        0.00090048329353902,
        -0.24981388416547082,
        0.9682934536637118,
        0.0,
        -0.7237993478775024,
        0.24396531283855438,
        -0.1193787008523941,
        1.0
      ],
      "name": "Plane.007_4"
    },
    {
      "mesh": 2,
      "name": "Object_18"
    },
    {
      "children": [
        20
      ],
      "matrix": [
        -0.8905663144551001,
        -0.32443312957767084,
        0.31880210788245755,
        0.0,
        0.4548533754335638,
        -0.6348818483945731,
        0.6245265770451919,
        0.0,
        -0.0002154403707012309,
        0.7011905468640666,
        0.7129738919300748,
        0.0,
        -0.7233511209487915,
        0.15931390225887299,
        -0.2717902958393097,
        1.0
      ],
      "name": "Plane.004_6"
    },
    {
      "mesh": 3,
      "name": "Object_20"
    },
    {
      "children": [
        22,
        23
      ],
      "matrix": [
        -0.8901673121510254,
        -0.4555459562076615,
        -0.008946404901772762,
        0.0,
        0.45563379635143764,
        -0.8899957187818179,
        -0.017477533361780775,
        0.0,
        -4.424136227018649e-07,
        -0.019634213324778098,
        0.999807230253373,
        0.0,
        -0.7236825823783875,
        0.47161832451820374,
        -0.023524055257439613,
        1.0
      ],
      "name": "Circle.012_8"
    },
    {
      "mesh": 4,
      "name": "Object_22"
    },
    {
      "mesh": 5,
      "name": "Object_23"
    },
    {
      "children": [
        25
      ],
      "matrix": [
        -0.8901673121510254,
        -0.4555459562076615,
        -0.008946404901772762,
        0.0,
        0.45563379635143764,
        -0.8899957187818179,
        -0.017477533361780775,
        0.0,
        -4.424136227018649e-07,
        -0.019634213324778098,
        0.999807230253373,
        0.0,
        -0.7236825823783875,
        0.47161832451820374,
        -0.023524055257439613,
        1.0
      ],
      "name": "Plane.002_9"
    },
    {
      "mesh": 6,
      "name": "Object_25"
    },
    {
      "children": [
        27
      ],
      "matrix": [
        -0.8901670866116091,
        -0.4556315437057642,
        0.0015666185564212837,
        0.0,
        0.45563423698553374,
        -0.8901618255180803,
        0.0030604700502792613,
        0.0,
        9.734060047231468e-08,
        0.0034381347589215665,
        0.9999940895972186,
        0.0,
        -0.7236828207969666,
        1.1256004571914673,
        -0.034398388117551804,
        1.0
      ],
      "name": "Circle.006_11"
    },
    {
      "mesh": 7,
      "name": "Object_27"
    },
    {
      "children": [
        29
      ],
      "matrix": [
        -0.8901670866116091,
        -0.4556315437057642,
        0.0015666185564212837,
        0.0,
        0.45563423698553374,
        -0.8901618255180803,
        0.0030604700502792613,
        0.0,
        9.734060047231468e-08,
        0.0034381347589215665,
        0.9999940895972186,
        0.0,
        -0.7236828207969666,
        1.1256004571914673,
        -0.034398388117551804,
        1.0
      ],
      "name": "Circle.015_12"
    },
    {
      "mesh": 8,
      "name": "Object_29"
    },
    {
      "children": [
        31
      ],
      "matrix": [
        -0.8901670866116091,
        -0.4556315437057642,
        0.0015666185564212837,
        0.0,
        0.45563423698553374,
        -0.8901618255180803,
        0.0030604700502792613,
        0.0,
        9.734060047231468e-08,
        0.0034381347589215665,
        0.9999940895972186,
        0.0,
        -0.7236828207969666,
        1.1256004571914673,
        -0.034398388117551804,
        1.0
      ],
      "name": "Cylinder_13"
    },
    {
      "mesh": 9,
      "name": "Object_31"
    },
    {
      "children": [
        33,
        34
      ],
      "matrix": [
        0.8901670620574127,
        0.0,
        -0.45563428495677794,
        0.0,
        -0.45563428495677794,
        0.0,
        -0.8901670620574128,
        0.0,
        0.0,
        1.0,
        0.0,
        0.0,
        0.723682701587677,
        0.43299099802970886,
        1.3798248767852783,
        1.0
      ],
      "name": "Circle.002_15"
    },
    {
      "mesh": 10,
      "name": "Object_33"
    },
    {
      "mesh": 11,
      "name": "Object_34"
    },
    {
      "children": [
        36,
        37
      ],
      "matrix": [
        1.0,
        0.0,
        0.0,
        0.0,
        0.0,
        0.0,
        1.0,
        0.0,
        0.0,
        -1.0,
        0.0,
        0.0,
        0.015502989292144775,
        0.11156311631202698,
        -0.769882321357727,
        1.0
      ],
      "name": "Circle.003_17"
    },
    {
      "mesh": 12,
      "name": "Object_36"
    },
    {
      "mesh": 13,
      "name": "Object_37"
    },
    {
      "children": [
        39,
        40
      ],
      "matrix": [
        1.0,
        0.0,
        0.0,
        0.0,
        0.0,
        1.0,
        0.0,
        0.0,
        0.0,
        0.0,
        1.0,
        0.0,
        0.015502989292144775,
        -0.04038369655609131,
        -0.11156310886144638,
        1.0
      ],
      "name": "Circle_19"
    },
    {
      "mesh": 14,
      "name": "Object_39"
    },
    {
      "mesh": 15,
      "name": "Object_40"
    },
    {
      "children": [
        42
      ],
      "matrix": [
        0.0,
        0.0,
        -1.0,
        0.0,
        0.0,
        1.0,
        0.0,
        0.0,
        1.0,
        0.0,
        0.0,
        0.0,
        -0.015502989292144775,
        0.04038369655609131,
        0.11156310886144638,
        1.0
      ],
      "name": "Circle.005_22"
    },
    {
      "mesh": 16,
      "name": "Object_42"
    },
    {
      "children": [
        44
      ],
      "matrix": [
        1.0,
        0.0,
        0.0,
        0.0,
        0.0,
        1.0,
        0.0,
        0.0,
        0.0,
        0.0,
        1.0,
        0.0,
        -0.015502989292144775,
        0.0014435350894927979,
        0.11156310886144638,
        1.0
      ],
      "name": "Circle.072_23"
    },
    {
      "mesh": 17,
      "name": "Object_44"
    }
  ],
  "scene": 0,
  "scenes": [
    {
      "name": "Sketchfab_Scene",
      "nodes": [
        0
      ]
    }
  ]
}
